<?xml version="1.0" encoding="utf-8"?>
<!-- Generator: Adobe Illustrator 23.0.2, SVG Export Plug-In . SVG Version: 6.00 Build 0)  -->
<svg version="1.1" id="Camada_1" xmlns="http://www.w3.org/2000/svg" xmlns:xlink="http://www.w3.org/1999/xlink" x="0px" y="0px"
	 viewBox="0 0 384 512" style="enable-background:new 0 0 384 512;" xml:space="preserve">
<style type="text/css">
	.st0{fill:none;stroke:#000000;stroke-width:9;stroke-miterlimit:10;}
</style>
<g>
	<g>
		<line class="st0" x1="39.9" y1="233" x2="136.2" y2="233"/>
		<g>
			<rect x="68.1" y="290.2" class="st0" width="201.2" height="76.6"/>
			<line class="st0" x1="68.1" y1="290.2" x2="169.1" y2="325.6"/>
			<line class="st0" x1="269.2" y1="290.2" x2="165.7" y2="325.6"/>
		</g>
		<g>
			<polyline class="st0" points="57.7,302.9 26.1,302.9 26.1,213.6 153.5,213.6 153.5,280.5 			"/>
		</g>
		<g>
			<rect x="25.5" y="138.3" class="st0" width="127.3" height="61.4"/>
			<g>
				<circle cx="64.7" cy="167.4" r="8"/>
				<circle cx="87.4" cy="168.1" r="8"/>
				<circle cx="109.3" cy="168.1" r="8"/>
			</g>
		</g>
		<g>
			<g>
				<polyline class="st0" points="349.6,402.2 167.4,402.2 167.4,375.7 				"/>
				<g>
					<polyline class="st0" points="169.2,280.1 169.2,138.7 349.3,138.7 349.3,230 					"/>
					<line class="st0" x1="185.2" y1="155.5" x2="333.3" y2="155.5"/>
				</g>
			</g>
			<line class="st0" x1="168.3" y1="172.4" x2="350.1" y2="172.4"/>
			<g>
				<circle cx="237" cy="197.7" r="8"/>
				<circle cx="259.6" cy="198.4" r="8"/>
				<circle cx="281.5" cy="198.4" r="8"/>
			</g>
		</g>
	</g>
	<g>
		<line class="st0" x1="337.4" y1="256.6" x2="358.5" y2="257.4"/>
		<path class="st0" d="M348.9,389.1L348.9,389.1c-4.3,0-7.8-9.4-7.8-14.9v-132h15.6v131.9C356.8,379.7,353.3,389.1,348.9,389.1z"/>
	</g>
</g>
</svg>
